<svg width="53" height="39" viewBox="0 0 53 39" fill="none" xmlns="http://www.w3.org/2000/svg">
<path d="M4.79997 38.0745C2.72098 37.5146 1.46345 36.1502 0.95568 34.0403C0.458389 31.973 0.43333 29.8605 0.432903 27.7556C0.429869 22.1469 0.423893 16.5383 0.465016 10.9299C0.462932 9.35441 0.558 7.7804 0.749681 6.2171C1.15581 3.1277 3.01107 1.23119 6.08166 0.887189C8.15125 0.655512 10.2499 0.650743 12.3356 0.636184C16.6288 0.608161 20.9218 0.638957 25.2156 0.648815C28.8559 0.658554 32.4965 0.670621 36.1375 0.685001C39.1725 0.700518 42.2093 0.708027 45.244 0.765427C46.4718 0.78817 47.6896 0.993528 48.8297 1.49625C50.9775 2.44094 52.0628 4.21385 52.2994 6.48757C52.4888 8.31431 52.5304 10.1623 52.5345 12.0019C52.5496 17.9415 52.5499 23.8813 52.4815 29.8201C52.476 31.3123 52.3017 32.7988 51.9619 34.2504C51.4214 36.4614 49.9068 37.8052 47.7265 38.3627C46.0427 38.7938 44.3252 38.7677 42.6121 38.7665C35.5758 38.7605 28.5396 38.7481 21.5037 38.7295C17.3248 38.7179 13.145 38.7192 8.96699 38.6407C7.57234 38.6146 6.18101 38.3601 4.78831 38.2073L4.79997 38.0745ZM49.4147 17.3701L3.59275 17.2746C3.58392 17.5899 3.57108 17.8353 3.57001 18.0816C3.56395 21.5327 3.52552 24.9853 3.57144 28.4356C3.59656 30.009 3.71113 31.5796 3.91458 33.1396C4.04979 34.1974 4.76163 34.9212 5.79809 35.1324C6.80412 35.3459 7.82752 35.4635 8.85497 35.4836C14.3405 35.5367 19.8263 35.544 25.3132 35.5602C30.7334 35.5754 36.1548 35.6005 41.5745 35.5819C43.2531 35.5757 44.9366 35.5016 46.607 35.3419C47.9972 35.2086 48.8619 34.3426 49.1057 32.9289C49.2425 32.1786 49.3212 31.4186 49.3411 30.6558C49.3858 27.6697 49.3942 24.6833 49.4114 21.6966C49.4128 20.2728 49.4092 18.8489 49.4108 17.3742L49.4147 17.3701ZM3.54162 9.33542L49.4616 9.4304C49.3536 8.41802 49.2879 7.47379 49.1458 6.5437C48.9558 5.30227 48.2564 4.43072 47.0144 4.25465C45.55 4.03617 44.0733 3.91429 42.5935 3.8898C36.8636 3.83551 31.1337 3.84205 25.4035 3.83065C20.4897 3.82049 15.5766 3.79736 10.6633 3.82009C9.19579 3.82461 7.72954 3.90704 6.27056 4.06704C4.96788 4.21298 4.12076 5.0069 3.90237 6.35541C3.73977 7.31716 3.6568 8.28865 3.53771 9.33548L3.54162 9.33542Z" fill="white"/>
</svg>
