<svg width="41" height="57" viewBox="0 0 41 57" fill="none" xmlns="http://www.w3.org/2000/svg">
<path d="M23.6898 57H17.2572C17.0628 56.9521 16.8691 56.8963 16.6725 56.857C12.402 56.0395 8.73399 54.0814 5.72853 50.9447C1.89326 46.9398 -0.0408021 42.1346 0.000652503 36.5878C0.0328156 32.2474 1.35865 28.2998 3.89309 24.7647C4.01068 24.5915 4.07502 24.3876 4.0782 24.1783C4.09035 21.5793 4.04747 18.9804 4.10322 16.383C4.12967 15.1758 4.19971 13.9364 4.49132 12.7721C6.1545 6.1175 10.3657 1.97314 17.0099 0.301797C17.5367 0.169492 18.082 0.0994078 18.6152 0H22.3318C22.3965 0.0252034 22.4632 0.0450442 22.5312 0.0593467C26.2014 0.529925 29.3712 2.05752 31.9907 4.66072C35.1127 7.76453 36.7566 11.5434 36.8459 15.9532C36.9017 18.6937 36.8552 21.4363 36.8688 24.1775C36.881 24.3859 36.9443 24.5881 37.0532 24.7661C37.6964 25.8896 38.4541 26.9595 38.9987 28.1274C41.2587 32.9791 41.6532 38.0081 39.9336 43.0815C37.5893 49.9971 32.8127 54.4526 25.8033 56.4994C25.11 56.7054 24.3945 56.8362 23.6898 57ZM30.6856 24.0138C30.6913 23.9065 30.7014 23.8157 30.7014 23.7277C30.7014 21.2246 30.7164 18.7216 30.6928 16.2185C30.6899 15.5394 30.6207 14.8623 30.4862 14.1967C29.2962 8.52189 23.6705 4.99755 18.027 6.36995C15.8099 6.91058 13.8381 8.17974 12.4271 9.97432C11.0161 11.7689 10.2475 13.9852 10.2442 16.2685C10.2385 18.7351 10.2442 21.2032 10.2442 23.6691C10.2442 23.7806 10.2564 23.8922 10.2664 24.056C10.4179 23.9251 10.5244 23.835 10.6295 23.7427C12.5371 22.0692 14.732 20.9922 17.24 20.5817C19.0269 20.2899 20.8237 20.3285 22.6191 20.453C24.9284 20.6125 27.034 21.3827 28.941 22.6828C29.5363 23.0869 30.0881 23.5539 30.6856 24.0138ZM24.5582 35.1103C24.5625 32.1287 22.226 30.1942 19.6902 30.702C18.1099 31.0188 17.0263 31.9793 16.5646 33.5154C16.1029 35.0516 16.3959 36.5377 17.6453 37.5919C18.34 38.1754 18.5108 38.7705 18.4243 39.5657C18.4215 39.6134 18.4215 39.6611 18.4243 39.7088C18.4243 41.4359 18.4122 43.163 18.4243 44.8901C18.4365 46.3126 19.6944 47.2773 21.0217 46.9076C21.9366 46.6523 22.5226 45.8627 22.5226 44.8465C22.5274 42.7863 22.525 40.7257 22.5155 38.6646C22.5155 38.3786 22.587 38.199 22.8328 38.021C23.9628 37.2093 24.5432 36.0986 24.5582 35.1103Z" fill="white"/>
</svg>
