<svg width="45" height="45" viewBox="0 0 45 45" fill="none" xmlns="http://www.w3.org/2000/svg">
<path fill-rule="evenodd" clip-rule="evenodd" d="M12.4432 0.621094H32.9455C39.5301 0.621094 44.9462 6.03567 44.9462 12.6184V33.0032C44.9462 39.5859 39.5223 45.0005 32.9455 45.0005H12.4432C5.85865 45.0005 0.442535 39.5782 0.442535 33.0032V12.6184C0.442535 6.03567 5.8664 0.621094 12.4432 0.621094ZM34.6393 8.36727C35.3125 8.37649 35.9556 8.64795 36.4317 9.1239C36.9078 9.59985 37.1793 10.2427 37.1885 10.9158C37.1793 11.5887 36.9077 12.2314 36.4316 12.7071C35.9554 13.1828 35.3124 13.4539 34.6393 13.4627C34.3034 13.4673 33.97 13.4046 33.6587 13.2782C33.3475 13.1518 33.0647 12.9644 32.8271 12.727C32.5894 12.4896 32.4018 12.207 32.2752 11.896C32.1487 11.5849 32.0857 11.2516 32.0901 10.9158C32.0857 10.5799 32.1487 10.2465 32.2752 9.93535C32.4018 9.62418 32.5894 9.34149 32.827 9.10396C33.0646 8.86644 33.3473 8.67888 33.6586 8.55236C33.9699 8.42583 34.3033 8.3629 34.6393 8.36727ZM22.6386 10.7035H22.744C29.3286 10.7035 34.8516 16.2234 34.8516 22.8061C34.8516 29.4957 29.3286 34.9103 22.744 34.9103H22.6386C16.054 34.9103 10.6379 29.4957 10.6379 22.8061C10.6379 16.2234 16.0617 10.7035 22.6386 10.7035ZM22.6386 14.8431H22.744C27.0986 14.8431 30.7093 18.4528 30.7093 22.8061C30.7093 27.2649 27.0986 30.8761 22.744 30.8761H22.6386C18.284 30.8761 14.6732 27.2649 14.6732 22.8061C14.6732 18.4528 18.284 14.8431 22.6386 14.8431ZM12.5486 4.44925H32.8339C35.0301 4.45212 37.1355 5.32568 38.6883 6.87832C40.2411 8.43096 41.1145 10.5359 41.117 12.7315V32.8979C41.1141 35.0932 40.2405 37.1977 38.6877 38.75C37.135 40.3023 35.0298 41.1757 32.8339 41.1785H12.5486C10.3528 41.1753 8.24792 40.3018 6.69526 38.7496C5.1426 37.1973 4.26887 35.093 4.26559 32.8979V12.7253C4.2701 10.5309 5.14437 8.42779 6.6969 6.87658C8.24942 5.32537 10.3536 4.45253 12.5486 4.44925Z" fill="white"/>
</svg>
