<svg width="205" height="56" viewBox="0 0 205 56" fill="none" xmlns="http://www.w3.org/2000/svg">
<path d="M203.062 11.2944C203.062 8.04099 200.43 5.40887 197.177 5.40887C193.94 5.40887 191.308 8.04099 191.308 11.2944C191.308 14.5314 193.94 17.1635 197.177 17.1635C200.43 17.1635 203.062 14.5314 203.062 11.2944ZM202.082 11.3107C202.082 13.9919 199.875 16.1826 197.161 16.1826C194.48 16.1826 192.289 13.9919 192.289 11.3107C192.289 8.59684 194.48 6.38979 197.161 6.38979C199.875 6.38979 202.082 8.59684 202.082 11.3107ZM196 9.00556H197.095C197.618 9.00556 198.223 9.0873 198.223 9.87203C198.223 10.6404 197.537 10.8202 197.063 10.8202H196V9.00556ZM198.076 11.5232C198.828 11.3924 199.548 10.7549 199.548 9.88838C199.548 8.18813 198.011 8.10639 197.488 8.10639H194.774V14.4333H196.016V11.6867H196.817L198.763 14.4333H200.103L198.076 11.5232Z" fill="white"/>
<g clip-path="url(#clip0_83_448)">
<path d="M21.1975 36.0028C19.9236 36.9763 18.721 38.2371 17.5898 39.7853C17.5066 39.8993 17.4416 40.0256 17.3974 40.1596C17.1104 41.027 17.0472 41.7633 17.2056 42.4011C16.0044 43.2704 14.5533 43.9128 12.8656 44.231C11.7021 44.4495 10.4813 44.3875 9.28721 44.3875C6.35252 44.4025 3.41784 44.3875 0.483155 44.3765C0.365115 44.3765 0.246425 44.3588 0.127733 44.3497L0.0625181 44.2512C3.08981 41.5429 4.76649 38.2221 4.76649 34.1253C4.76649 30.0285 3.11068 26.7273 0.0279541 23.955C0.182981 23.9288 0.339277 23.9107 0.496199 23.9008C4.26498 23.9008 8.03508 23.8461 11.8026 23.9087C15.9959 23.9785 19.8534 27.1244 21.0025 31.3478C21.4139 32.8655 21.4805 34.456 21.1975 36.0028Z" fill="#FFA71A"/>
<path d="M31.1865 37.6624C31.2525 37.9297 31.2905 38.2031 31.2999 38.4782C30.9243 39.6045 30.3869 40.2971 29.7067 40.539L29.4961 40.614C29.5046 40.404 29.577 40.0538 29.843 39.5054C30.3282 38.6308 30.771 38.0198 31.1565 37.5933C31.1663 37.6167 31.176 37.6389 31.1865 37.6624Z" fill="#FFA71A"/>
<path d="M41.5711 41.3738C41.3774 41.325 41.1969 41.2341 41.0422 41.1077L40.7873 40.8997C40.5947 40.7424 40.449 40.5353 40.366 40.301C40.2134 39.8712 40.109 39.2093 40.231 37.6591C39.7614 38.0413 39.0721 38.5187 38.0436 39.1499C37.6302 42.2079 37.4893 42.937 37.4072 43.2337C37.3367 43.4884 37.1932 43.717 36.9943 43.8911C38.7192 43.4671 40.3044 42.6024 41.5946 41.3816L41.5711 41.3738ZM35.2166 42.9976C35.2331 43.0143 35.2483 43.0322 35.2622 43.0511C35.2487 43.0319 35.2334 43.014 35.2166 42.9976ZM34.7927 23.6711C31.4497 23.6105 28.1042 23.6509 24.76 23.6509H23.5737L23.4818 23.7729C26.5038 26.478 28.1851 29.7942 28.1962 33.8682C29.1685 33.0341 30.0522 32.481 30.8745 32.1895L30.93 32.17C31.1425 32.0947 31.3664 32.0566 31.5919 32.0571C32.126 32.0571 32.6517 32.2528 33.2151 32.663C33.4616 31.9456 33.8771 31.4787 34.4542 31.2732C34.5595 31.236 34.669 31.2119 34.7803 31.2015L35.4422 31.1363C37.1893 30.2585 38.7936 29.5587 40.2121 29.0559C40.2938 29.0258 40.3783 29.0039 40.4644 28.9907C41.1368 28.6731 41.9285 28.2733 42.8285 27.8064C41.9043 26.538 40.6964 25.5033 39.3011 24.7849C37.9059 24.0664 36.362 23.6841 34.7927 23.6685V23.6711Z" fill="#FFA71A"/>
<path d="M23.4253 19.28C26.1376 16.8084 27.6141 13.8769 27.6037 10.2673C27.5932 6.65761 26.0939 3.75227 23.3725 1.29366C23.6268 1.26236 23.752 1.23431 23.8766 1.23431C26.9711 1.23431 30.0655 1.22127 33.16 1.23431C35.3153 1.24166 37.398 2.01354 39.0376 3.41256C40.6771 4.81158 41.767 6.74698 42.1134 8.87427C42.8112 13.2437 40.2221 17.5479 36.0321 18.9005C35.2134 19.1625 34.3605 19.3021 33.5011 19.3146C30.2944 19.3596 27.0878 19.3283 23.8812 19.3237C23.7755 19.3244 23.6705 19.3048 23.4253 19.28Z" fill="#FFA71A"/>
<path d="M0.198126 1.48905H1.52982C4.26299 1.48905 6.99355 1.46883 9.72737 1.47665C11.0142 1.47273 12.287 1.74282 13.4613 2.26894C14.6356 2.79507 15.6845 3.56518 16.5381 4.52806C17.3917 5.49094 18.0306 6.62453 18.4122 7.85343C18.7938 9.08234 18.9093 10.3784 18.7512 11.6554C18.2438 16.0144 14.402 19.5034 10.0084 19.5465C6.83899 19.5758 3.67018 19.5465 0.500725 19.5465C0.385294 19.5465 0.269862 19.5197 0.0513916 19.495C2.735 17.0311 4.16321 14.0788 4.18017 10.5181C4.19712 6.95734 2.81065 3.98744 0.136823 1.60969L0.198126 1.48905Z" fill="#FFA71A"/>
<path d="M29.0538 44.1802C29.3104 44.2394 29.573 44.2691 29.8364 44.2689C30.1076 44.268 30.378 44.2387 30.6431 44.1815L29.0538 44.1802Z" fill="white"/>
<path d="M19.0705 47.8677L18.9656 47.9046L18.9831 47.9537L19.0879 47.9169L19.0705 47.8677ZM19.0705 47.8677L18.9656 47.9046L18.9831 47.9537L19.0879 47.9169L19.0705 47.8677ZM19.0705 47.8677L18.9656 47.9046L18.9831 47.9537L19.0879 47.9169L19.0705 47.8677Z" fill="#1D1D1B"/>
<path d="M47.8267 29.2484C47.8143 29.2172 47.7918 29.1912 47.7628 29.1744C47.7338 29.1576 47.7 29.151 47.6669 29.1558C47.6313 29.1561 47.5959 29.1603 47.5612 29.1682C47.5514 29.1408 47.5417 29.1153 47.5306 29.0919C47.5195 29.0684 47.5084 29.0455 47.4967 29.0266C47.4855 29.0072 47.4731 28.9884 47.4595 28.9705C47.447 28.9543 47.4335 28.9388 47.4191 28.9242C47.3936 28.8982 47.3631 28.8776 47.3295 28.8636C47.2959 28.8496 47.2598 28.8425 47.2234 28.8427C47.1804 28.8433 47.1379 28.8513 47.0976 28.8662L47.0773 28.8108L47.1145 28.7416L47.0949 28.6862L46.8171 28.7286L46.78 28.6236L46.8119 28.5584L46.7428 28.5199L46.8426 28.4847L46.8054 28.3797L46.6 28.4521L46.5823 28.4025L47.153 28.2004L47.1334 28.1456C47.1217 28.1153 47.1 28.0899 47.0719 28.0735C47.0438 28.0572 47.011 28.0509 46.9789 28.0556C46.9244 28.0573 46.8705 28.0663 46.8184 28.0823L46.8556 28.0132C46.812 27.9673 46.7598 27.9306 46.7019 27.9051C46.6441 27.8795 46.5817 27.8657 46.5184 27.8645H46.4754C46.4454 27.8672 46.4157 27.8727 46.3867 27.8808C46.3717 27.8847 46.3561 27.8899 46.3411 27.8952L45.3504 28.246L44.3422 28.548C44.0713 28.6923 43.809 28.8308 43.5551 28.9634C42.4503 29.5412 41.5027 30.0125 40.7123 30.3772C40.6869 30.3662 40.6706 30.3538 40.6654 30.3375C39.2306 30.8466 37.6172 31.5561 35.8251 32.4661L34.9121 32.5541C34.6656 32.6411 34.4917 32.9795 34.3904 33.5695C34.6273 34.2369 34.6593 35.4836 34.4862 37.3096C34.1384 36.5101 33.4228 35.7779 32.3394 35.1132L32.3217 35.063C32.8122 34.7586 33.0295 34.528 32.9739 34.371L32.8859 34.1219L32.8102 34.086L32.7646 34.0449C32.7346 34.0176 32.7052 33.9915 32.6752 33.966C32.5004 33.811 32.3088 33.676 32.1039 33.5637L32.0485 33.5356L32.0074 33.5167C31.98 33.5043 31.9539 33.4932 31.9272 33.4834L31.8881 33.4691C31.7942 33.4357 31.6955 33.4178 31.5959 33.4163C31.5253 33.4156 31.4551 33.4273 31.3885 33.4508L31.3331 33.4704C30.4201 33.7939 29.3399 34.578 28.0925 35.8227L28.0665 35.8534C26.573 37.5707 25.8544 39.12 25.9104 40.5012C25.8259 40.4432 25.7301 40.4035 25.6294 40.3845C25.6091 40.3659 25.5873 40.3491 25.5641 40.3343C25.5478 40.3232 25.5308 40.3132 25.5133 40.3043C25.495 40.2945 25.4761 40.286 25.4559 40.2776C25.3229 40.2255 25.1829 40.1939 25.0405 40.1836C24.9948 40.1797 24.9466 40.1765 24.8963 40.1739C24.8461 40.1713 24.7927 40.1739 24.7379 40.1739C24.6661 40.1739 24.5905 40.1758 24.5109 40.1797L24.3472 40.1895C24.0942 40.2082 23.8068 40.2441 23.4851 40.2971L23.266 40.3349C23.0416 40.3754 22.8025 40.4234 22.5486 40.4791C22.4638 40.4973 22.3771 40.5169 22.2877 40.5371C21.9343 40.618 21.5538 40.7121 21.1465 40.8195L21.0969 40.8371L21.0617 40.7373C22.749 39.0922 24.2651 38.0313 25.6098 37.5548L25.9196 37.4446C26.2409 37.3307 26.3317 36.9892 26.1922 36.4201L25.9222 35.8175L25.8994 35.5951L25.8498 35.6127L25.7846 35.5808C25.5341 35.4734 25.3339 35.4195 25.1839 35.419C25.1339 35.4182 25.084 35.4259 25.0366 35.4419L24.9316 35.479C23.3268 36.0486 21.8121 37.0738 20.3874 38.5546C19.7769 39.1935 19.2104 39.8731 18.6918 40.5886C18.6169 40.8092 18.5598 41.0353 18.5209 41.2649C18.4605 41.634 18.475 41.9449 18.5646 42.1975C18.7168 42.6257 19.0035 42.8894 19.4248 42.9886C19.4347 43.0161 19.4502 43.0412 19.4704 43.0622C19.482 43.0743 19.4947 43.0852 19.5083 43.0949C19.5688 43.1348 19.637 43.1619 19.7085 43.1744C19.7398 43.1816 19.7737 43.1868 19.8109 43.1914C19.8935 43.2011 19.9767 43.2056 20.06 43.2051C20.6104 43.2051 21.5117 43.0477 22.7638 42.7329C22.8682 42.7068 22.9749 42.6794 23.084 42.6507C23.4114 42.566 23.7609 42.471 24.1327 42.3657C23.9262 42.6849 23.0131 43.4905 21.3936 44.7826C18.8959 46.5578 17.6785 47.5319 17.7416 47.7049L17.7592 47.7558C17.7887 47.7442 17.8201 47.7378 17.8518 47.7369C17.8738 47.7352 17.8958 47.7412 17.9139 47.7538C17.9321 47.7664 17.9454 47.7848 17.9516 47.806L18.0507 47.7708L18.0683 47.8203L18.0364 47.8856L18.054 47.9351L18.159 47.898L18.1916 47.8327C18.1999 47.8641 18.2186 47.8916 18.2447 47.9108C18.2708 47.93 18.3027 47.9398 18.335 47.9384C18.3748 47.9372 18.4141 47.9293 18.4511 47.9149L18.5059 48.0701L18.474 48.1353L18.8209 48.1308L18.8385 48.1803L18.7335 48.2175L18.7707 48.3225L18.9252 48.2677L18.9611 48.3682C18.8007 48.4529 18.7342 48.5358 18.7616 48.6127L18.7811 48.6675L19.3087 48.3629L19.3459 48.4673L19.0387 48.7451L19.0583 48.8005L19.1235 48.8325C21.3695 47.3425 23.1136 46.105 24.3557 45.1198C24.7108 44.8253 25.0469 44.5086 25.362 44.1716C25.7557 43.7509 26.1141 43.2985 26.4335 42.819C26.4987 42.7949 26.5359 42.6951 26.5339 42.517L26.5678 42.5705L26.6004 42.6168C26.6109 42.6312 26.6213 42.6442 26.6311 42.656L26.6604 42.6879C26.6852 42.7189 26.7209 42.7392 26.7602 42.7446H26.768C26.8861 42.8718 27.0048 42.9905 27.1247 43.102C27.1697 43.1431 27.2147 43.1835 27.2604 43.2233C27.306 43.2631 27.3517 43.3009 27.3973 43.3388C27.5842 43.4917 27.7826 43.6299 27.9908 43.7522C28.0632 43.7953 28.1362 43.835 28.2093 43.8716C28.4768 44.009 28.7602 44.1128 29.0532 44.1807H30.6444C30.6927 44.1709 30.7416 44.1598 30.7905 44.1474C30.8394 44.135 30.9085 44.1168 30.9679 44.0992L31.0572 44.0724C31.1166 44.0535 31.1766 44.034 31.2366 44.0124L31.8235 43.8044C32.2444 43.6548 32.7456 43.3814 33.3274 42.984C33.5924 42.7799 33.8369 42.5504 34.0571 42.2986C34.0736 42.6612 34.1154 42.9381 34.1823 43.1294C34.211 43.209 34.2567 43.2488 34.3212 43.2488C34.3462 43.2483 34.371 43.2435 34.3943 43.2344L34.6969 43.4203L34.7621 43.2775L34.8175 43.2579L34.8873 43.2957C34.9682 43.267 34.9877 43.1607 34.948 42.9749L34.9304 42.9253C34.961 42.9139 34.9935 42.9079 35.0262 42.9077C35.0656 42.9078 35.1044 42.9176 35.139 42.9364C35.1461 42.9403 35.1528 42.9446 35.1593 42.9494C35.1674 42.9544 35.1752 42.9599 35.1827 42.9657L35.1984 42.9794L35.2134 42.9944C35.2302 43.0108 35.2455 43.0287 35.259 43.0479C35.2694 43.0617 35.279 43.0761 35.2877 43.0909C35.3582 43.0662 35.3745 43.0022 35.3379 42.8992L35.4429 42.8614L35.5179 43.072L35.4795 43.1412L35.6751 43.1894L35.7247 43.1718C35.6882 43.0681 35.8108 42.967 36.0905 42.8679C36.1931 42.4988 36.4216 40.9825 36.7759 38.3191C38.6567 37.2035 39.748 36.4031 40.0497 35.9179C40.0358 35.8788 39.9771 35.8592 39.8737 35.8592C39.8082 35.8602 39.7428 35.8654 39.678 35.8749L39.6591 35.8201L39.6963 35.7497L39.6774 35.6949L39.3239 35.7021L39.0278 35.8684L38.9783 35.886L38.9587 35.8312L39.1139 35.7764L39.0963 35.7268L38.9359 35.6082L38.8485 35.344C38.833 35.3493 38.8166 35.3517 38.8002 35.3512H38.7833L38.7441 35.3453C38.7274 35.3417 38.7108 35.3372 38.6946 35.3316L38.6522 35.316C38.6141 35.3003 38.5769 35.2827 38.5407 35.2632C38.5107 35.2475 38.4787 35.2293 38.4448 35.2084C38.4226 35.1953 38.3985 35.1803 38.3744 35.1647L37.0485 35.7464L36.9983 35.764C36.9742 35.1836 36.9846 34.8843 37.0296 34.868C36.9314 34.2762 37.0596 33.9173 37.4144 33.7913C37.9661 33.533 38.4728 33.2939 38.9346 33.0739C38.9808 33.1081 39.0289 33.1397 39.0787 33.1685C39.112 33.1874 39.1439 33.205 39.1785 33.2206C39.2 33.2311 39.2215 33.2402 39.2437 33.2493C39.4112 33.3183 39.5908 33.3533 39.7719 33.3524C39.8228 33.3524 39.8743 33.3497 39.9265 33.3445C39.9656 33.3406 40.0054 33.3354 40.0452 33.3289C40.085 33.3224 40.126 33.3145 40.1665 33.3048C40.2515 33.2849 40.3353 33.2603 40.4176 33.2311L42.2436 32.2339L42.1784 33.3739C41.5784 36.989 41.403 39.1469 41.6521 39.8478L41.9064 40.0558C42.2838 40.1506 42.5071 40.2376 42.5762 40.3167C42.5832 40.3245 42.5892 40.3333 42.5938 40.3428L42.6434 40.3252L42.6792 40.2508C42.696 40.3046 42.7279 40.3524 42.7712 40.3884C42.7962 40.4075 42.8252 40.4209 42.856 40.4276C42.8758 40.4321 42.8962 40.4343 42.9166 40.4341C42.973 40.4324 43.0288 40.4214 43.0816 40.4015L43.3666 40.5371C43.5027 40.4889 43.6388 40.3221 43.7748 40.0369C43.7779 39.6187 43.8214 38.9789 43.9053 38.1176C44.0409 36.7077 44.2831 34.703 44.6318 32.1035L44.6415 32.0278C44.5624 31.3131 44.6537 30.9087 44.9155 30.8148L47.8684 29.3566L47.8267 29.2484ZM18.9833 47.954L18.9657 47.9045L19.0713 47.8673L19.0889 47.9169L18.9833 47.954ZM32.653 38.713C32.1391 40.3786 31.3085 41.4156 30.1612 41.8238L29.7347 41.9751C29.5733 42.0134 29.4081 42.0338 29.2423 42.0358C29.1685 42.0362 29.0948 42.0307 29.0219 42.0195C28.9971 42.0155 28.9723 42.0103 28.9482 42.0045C28.8692 41.9876 28.7927 41.9606 28.7206 41.9242C28.6977 41.9125 28.6762 41.9001 28.6553 41.8871C28.5703 41.8334 28.495 41.7654 28.433 41.6862C28.4173 41.666 28.4017 41.6445 28.3873 41.621C28.3336 41.5396 28.2898 41.452 28.2569 41.3601L28.2393 41.3106C28.0149 40.6793 28.1473 39.8702 28.6364 38.8833C29.5751 37.1811 30.5416 36.0744 31.5359 35.5632H31.5444C31.5504 35.5636 31.5563 35.5656 31.5613 35.569C31.5665 35.5723 31.5713 35.576 31.5757 35.5801C31.5888 35.5918 31.601 35.6044 31.6122 35.6179C31.6194 35.6258 31.6266 35.6349 31.6344 35.6447C31.6735 35.6936 31.7231 35.766 31.7831 35.8599L31.8209 35.9192C31.8789 36.0118 31.9455 36.1234 32.0205 36.2525L32.0244 36.4201C32.1309 36.4983 32.2844 36.7677 32.4848 37.2281C32.6256 37.8172 32.6817 38.3122 32.653 38.713Z" fill="white"/>
</g>
<g filter="url(#filter0_ddddii_83_448)">
<path d="M67.1421 43V5.54011H76.0238C79.0366 5.54011 81.2396 6.24542 82.6328 7.65604C84.0434 9.06667 84.7487 11.2348 84.7487 14.1606V15.4928C84.7487 19.3242 83.4774 21.8406 80.9348 23.0423C83.8606 24.1743 85.3234 26.8475 85.3234 31.0619V34.1183C85.3234 37.0092 84.5659 39.2122 83.0508 40.7273C81.5356 42.2424 79.3152 43 76.3895 43H67.1421ZM73.0197 37.6449H76.3895C77.417 37.6449 78.1832 37.3662 78.6883 36.8089C79.1933 36.2516 79.4458 35.3025 79.4458 33.9616V30.6962C79.4458 28.9895 79.1498 27.8053 78.5577 27.1435C77.983 26.4818 77.0164 26.1509 75.658 26.1509H73.0197V37.6449ZM73.0197 20.7957H75.3185C76.4853 20.7957 77.3647 20.4997 77.9568 19.9076C78.549 19.298 78.845 18.2793 78.845 16.8512V14.7614C78.845 13.4204 78.6099 12.4452 78.1397 11.8357C77.6695 11.2087 76.9119 10.8953 75.867 10.8953H73.0197V20.7957ZM88.8761 43V5.54011H97.7578C100.771 5.54011 102.974 6.24542 104.367 7.65604C105.777 9.06667 106.483 11.2348 106.483 14.1606V15.4928C106.483 19.3242 105.211 21.8406 102.669 23.0423C105.595 24.1743 107.057 26.8475 107.057 31.0619V34.1183C107.057 37.0092 106.3 39.2122 104.785 40.7273C103.27 42.2424 101.049 43 98.1235 43H88.8761ZM94.7537 37.6449H98.1235C99.151 37.6449 99.9173 37.3662 100.422 36.8089C100.927 36.2516 101.18 35.3025 101.18 33.9616V30.6962C101.18 28.9895 100.884 27.8053 100.292 27.1435C99.717 26.4818 98.7505 26.1509 97.3921 26.1509H94.7537V37.6449ZM94.7537 20.7957H97.0525C98.2193 20.7957 99.0988 20.4997 99.6909 19.9076C100.283 19.298 100.579 18.2793 100.579 16.8512V14.7614C100.579 13.4204 100.344 12.4452 99.8738 11.8357C99.4035 11.2087 98.646 10.8953 97.6011 10.8953H94.7537V20.7957ZM109.696 34.0138V31.715H115.26V34.3795C115.26 36.8176 116.279 38.0367 118.316 38.0367C120.354 38.0367 121.373 36.8176 121.373 34.3795C121.373 33.3346 121.155 32.3507 120.72 31.4277C120.302 30.5047 119.753 29.6774 119.074 28.946C118.412 28.1972 117.672 27.457 116.853 26.7256C116.035 25.9767 115.208 25.2018 114.372 24.4007C113.553 23.5822 112.804 22.7201 112.125 21.8145C111.464 20.9089 110.915 19.8292 110.48 18.5753C110.062 17.3214 109.853 15.9718 109.853 14.5263C109.853 11.5135 110.584 9.19728 112.047 7.57767C113.527 5.94065 115.687 5.12214 118.525 5.12214C121.364 5.12214 123.515 5.94065 124.978 7.57767C126.458 9.19728 127.198 11.5135 127.198 14.5263V15.7279H121.634V14.1606C121.634 11.7051 120.65 10.4773 118.682 10.4773C117.707 10.4773 116.975 10.7733 116.488 11.3655C116 11.9402 115.756 12.8719 115.756 14.1606C115.756 15.2055 115.965 16.1894 116.383 17.1124C116.819 18.0354 117.367 18.8714 118.029 19.6202C118.708 20.3517 119.457 21.0918 120.276 21.8406C121.094 22.5721 121.913 23.3471 122.731 24.1656C123.55 24.9667 124.29 25.82 124.952 26.7256C125.631 27.6312 126.179 28.7109 126.597 29.9648C127.033 31.2187 127.25 32.5684 127.25 34.0138C127.25 37.0266 126.501 39.3515 125.004 40.9886C123.506 42.6082 121.329 43.418 118.473 43.418C115.617 43.418 113.44 42.6082 111.942 40.9886C110.445 39.3515 109.696 37.0266 109.696 34.0138ZM130.124 34.0138V14.5263C130.124 11.5309 130.899 9.21469 132.449 7.57767C133.999 5.94065 136.21 5.12214 139.084 5.12214C141.957 5.12214 144.16 5.94065 145.693 7.57767C147.243 9.21469 148.018 11.5309 148.018 14.5263V34.0138C148.018 37.0092 147.243 39.3254 145.693 40.9624C144.16 42.5995 141.957 43.418 139.084 43.418C136.21 43.418 133.999 42.5995 132.449 40.9624C130.899 39.3254 130.124 37.0092 130.124 34.0138ZM136.028 34.3795C136.028 36.8525 137.046 38.0889 139.084 38.0889C141.104 38.0889 142.114 36.8525 142.114 34.3795V14.1606C142.114 11.7051 141.104 10.4773 139.084 10.4773C137.046 10.4773 136.028 11.7051 136.028 14.1606V34.3795ZM151.832 43V5.54011H167.401V10.8953H157.709V22.1802H165.311V27.5354H157.709V43H151.832ZM168.498 10.8953V5.54011H186.705V10.8953H180.541V43H174.663V10.8953H168.498Z" fill="#2B292B"/>
</g>
<path d="M67.1421 43V5.54011H76.0238C79.0366 5.54011 81.2396 6.24542 82.6328 7.65604C84.0434 9.06667 84.7487 11.2348 84.7487 14.1606V15.4928C84.7487 19.3242 83.4774 21.8406 80.9348 23.0423C83.8606 24.1743 85.3234 26.8475 85.3234 31.0619V34.1183C85.3234 37.0092 84.5659 39.2122 83.0508 40.7273C81.5356 42.2424 79.3152 43 76.3895 43H67.1421ZM73.0197 37.6449H76.3895C77.417 37.6449 78.1832 37.3662 78.6883 36.8089C79.1933 36.2516 79.4458 35.3025 79.4458 33.9616V30.6962C79.4458 28.9895 79.1498 27.8053 78.5577 27.1435C77.983 26.4818 77.0164 26.1509 75.658 26.1509H73.0197V37.6449ZM73.0197 20.7957H75.3185C76.4853 20.7957 77.3647 20.4997 77.9568 19.9076C78.549 19.298 78.845 18.2793 78.845 16.8512V14.7614C78.845 13.4204 78.6099 12.4452 78.1397 11.8357C77.6695 11.2087 76.9119 10.8953 75.867 10.8953H73.0197V20.7957ZM88.8761 43V5.54011H97.7578C100.771 5.54011 102.974 6.24542 104.367 7.65604C105.777 9.06667 106.483 11.2348 106.483 14.1606V15.4928C106.483 19.3242 105.211 21.8406 102.669 23.0423C105.595 24.1743 107.057 26.8475 107.057 31.0619V34.1183C107.057 37.0092 106.3 39.2122 104.785 40.7273C103.27 42.2424 101.049 43 98.1235 43H88.8761ZM94.7537 37.6449H98.1235C99.151 37.6449 99.9173 37.3662 100.422 36.8089C100.927 36.2516 101.18 35.3025 101.18 33.9616V30.6962C101.18 28.9895 100.884 27.8053 100.292 27.1435C99.717 26.4818 98.7505 26.1509 97.3921 26.1509H94.7537V37.6449ZM94.7537 20.7957H97.0525C98.2193 20.7957 99.0988 20.4997 99.6909 19.9076C100.283 19.298 100.579 18.2793 100.579 16.8512V14.7614C100.579 13.4204 100.344 12.4452 99.8738 11.8357C99.4035 11.2087 98.646 10.8953 97.6011 10.8953H94.7537V20.7957ZM109.696 34.0138V31.715H115.26V34.3795C115.26 36.8176 116.279 38.0367 118.316 38.0367C120.354 38.0367 121.373 36.8176 121.373 34.3795C121.373 33.3346 121.155 32.3507 120.72 31.4277C120.302 30.5047 119.753 29.6774 119.074 28.946C118.412 28.1972 117.672 27.457 116.853 26.7256C116.035 25.9767 115.208 25.2018 114.372 24.4007C113.553 23.5822 112.804 22.7201 112.125 21.8145C111.464 20.9089 110.915 19.8292 110.48 18.5753C110.062 17.3214 109.853 15.9718 109.853 14.5263C109.853 11.5135 110.584 9.19728 112.047 7.57767C113.527 5.94065 115.687 5.12214 118.525 5.12214C121.364 5.12214 123.515 5.94065 124.978 7.57767C126.458 9.19728 127.198 11.5135 127.198 14.5263V15.7279H121.634V14.1606C121.634 11.7051 120.65 10.4773 118.682 10.4773C117.707 10.4773 116.975 10.7733 116.488 11.3655C116 11.9402 115.756 12.8719 115.756 14.1606C115.756 15.2055 115.965 16.1894 116.383 17.1124C116.819 18.0354 117.367 18.8714 118.029 19.6202C118.708 20.3517 119.457 21.0918 120.276 21.8406C121.094 22.5721 121.913 23.3471 122.731 24.1656C123.55 24.9667 124.29 25.82 124.952 26.7256C125.631 27.6312 126.179 28.7109 126.597 29.9648C127.033 31.2187 127.25 32.5684 127.25 34.0138C127.25 37.0266 126.501 39.3515 125.004 40.9886C123.506 42.6082 121.329 43.418 118.473 43.418C115.617 43.418 113.44 42.6082 111.942 40.9886C110.445 39.3515 109.696 37.0266 109.696 34.0138ZM130.124 34.0138V14.5263C130.124 11.5309 130.899 9.21469 132.449 7.57767C133.999 5.94065 136.21 5.12214 139.084 5.12214C141.957 5.12214 144.16 5.94065 145.693 7.57767C147.243 9.21469 148.018 11.5309 148.018 14.5263V34.0138C148.018 37.0092 147.243 39.3254 145.693 40.9624C144.16 42.5995 141.957 43.418 139.084 43.418C136.21 43.418 133.999 42.5995 132.449 40.9624C130.899 39.3254 130.124 37.0092 130.124 34.0138ZM136.028 34.3795C136.028 36.8525 137.046 38.0889 139.084 38.0889C141.104 38.0889 142.114 36.8525 142.114 34.3795V14.1606C142.114 11.7051 141.104 10.4773 139.084 10.4773C137.046 10.4773 136.028 11.7051 136.028 14.1606V34.3795ZM151.832 43V5.54011H167.401V10.8953H157.709V22.1802H165.311V27.5354H157.709V43H151.832ZM168.498 10.8953V5.54011H186.705V10.8953H180.541V43H174.663V10.8953H168.498Z" fill="url(#paint0_linear_83_448)"/>
<path d="M67.1421 43V5.54011H76.0238C79.0366 5.54011 81.2396 6.24542 82.6328 7.65604C84.0434 9.06667 84.7487 11.2348 84.7487 14.1606V15.4928C84.7487 19.3242 83.4774 21.8406 80.9348 23.0423C83.8606 24.1743 85.3234 26.8475 85.3234 31.0619V34.1183C85.3234 37.0092 84.5659 39.2122 83.0508 40.7273C81.5356 42.2424 79.3152 43 76.3895 43H67.1421ZM73.0197 37.6449H76.3895C77.417 37.6449 78.1832 37.3662 78.6883 36.8089C79.1933 36.2516 79.4458 35.3025 79.4458 33.9616V30.6962C79.4458 28.9895 79.1498 27.8053 78.5577 27.1435C77.983 26.4818 77.0164 26.1509 75.658 26.1509H73.0197V37.6449ZM73.0197 20.7957H75.3185C76.4853 20.7957 77.3647 20.4997 77.9568 19.9076C78.549 19.298 78.845 18.2793 78.845 16.8512V14.7614C78.845 13.4204 78.6099 12.4452 78.1397 11.8357C77.6695 11.2087 76.9119 10.8953 75.867 10.8953H73.0197V20.7957ZM88.8761 43V5.54011H97.7578C100.771 5.54011 102.974 6.24542 104.367 7.65604C105.777 9.06667 106.483 11.2348 106.483 14.1606V15.4928C106.483 19.3242 105.211 21.8406 102.669 23.0423C105.595 24.1743 107.057 26.8475 107.057 31.0619V34.1183C107.057 37.0092 106.3 39.2122 104.785 40.7273C103.27 42.2424 101.049 43 98.1235 43H88.8761ZM94.7537 37.6449H98.1235C99.151 37.6449 99.9173 37.3662 100.422 36.8089C100.927 36.2516 101.18 35.3025 101.18 33.9616V30.6962C101.18 28.9895 100.884 27.8053 100.292 27.1435C99.717 26.4818 98.7505 26.1509 97.3921 26.1509H94.7537V37.6449ZM94.7537 20.7957H97.0525C98.2193 20.7957 99.0988 20.4997 99.6909 19.9076C100.283 19.298 100.579 18.2793 100.579 16.8512V14.7614C100.579 13.4204 100.344 12.4452 99.8738 11.8357C99.4035 11.2087 98.646 10.8953 97.6011 10.8953H94.7537V20.7957ZM109.696 34.0138V31.715H115.26V34.3795C115.26 36.8176 116.279 38.0367 118.316 38.0367C120.354 38.0367 121.373 36.8176 121.373 34.3795C121.373 33.3346 121.155 32.3507 120.72 31.4277C120.302 30.5047 119.753 29.6774 119.074 28.946C118.412 28.1972 117.672 27.457 116.853 26.7256C116.035 25.9767 115.208 25.2018 114.372 24.4007C113.553 23.5822 112.804 22.7201 112.125 21.8145C111.464 20.9089 110.915 19.8292 110.48 18.5753C110.062 17.3214 109.853 15.9718 109.853 14.5263C109.853 11.5135 110.584 9.19728 112.047 7.57767C113.527 5.94065 115.687 5.12214 118.525 5.12214C121.364 5.12214 123.515 5.94065 124.978 7.57767C126.458 9.19728 127.198 11.5135 127.198 14.5263V15.7279H121.634V14.1606C121.634 11.7051 120.65 10.4773 118.682 10.4773C117.707 10.4773 116.975 10.7733 116.488 11.3655C116 11.9402 115.756 12.8719 115.756 14.1606C115.756 15.2055 115.965 16.1894 116.383 17.1124C116.819 18.0354 117.367 18.8714 118.029 19.6202C118.708 20.3517 119.457 21.0918 120.276 21.8406C121.094 22.5721 121.913 23.3471 122.731 24.1656C123.55 24.9667 124.29 25.82 124.952 26.7256C125.631 27.6312 126.179 28.7109 126.597 29.9648C127.033 31.2187 127.25 32.5684 127.25 34.0138C127.25 37.0266 126.501 39.3515 125.004 40.9886C123.506 42.6082 121.329 43.418 118.473 43.418C115.617 43.418 113.44 42.6082 111.942 40.9886C110.445 39.3515 109.696 37.0266 109.696 34.0138ZM130.124 34.0138V14.5263C130.124 11.5309 130.899 9.21469 132.449 7.57767C133.999 5.94065 136.21 5.12214 139.084 5.12214C141.957 5.12214 144.16 5.94065 145.693 7.57767C147.243 9.21469 148.018 11.5309 148.018 14.5263V34.0138C148.018 37.0092 147.243 39.3254 145.693 40.9624C144.16 42.5995 141.957 43.418 139.084 43.418C136.21 43.418 133.999 42.5995 132.449 40.9624C130.899 39.3254 130.124 37.0092 130.124 34.0138ZM136.028 34.3795C136.028 36.8525 137.046 38.0889 139.084 38.0889C141.104 38.0889 142.114 36.8525 142.114 34.3795V14.1606C142.114 11.7051 141.104 10.4773 139.084 10.4773C137.046 10.4773 136.028 11.7051 136.028 14.1606V34.3795ZM151.832 43V5.54011H167.401V10.8953H157.709V22.1802H165.311V27.5354H157.709V43H151.832ZM168.498 10.8953V5.54011H186.705V10.8953H180.541V43H174.663V10.8953H168.498Z" fill="white"/>
<defs>
<filter id="filter0_ddddii_83_448" x="64.142" y="2.12207" width="126.563" height="45.2959" filterUnits="userSpaceOnUse" color-interpolation-filters="sRGB">
<feFlood flood-opacity="0" result="BackgroundImageFix"/>
<feColorMatrix in="SourceAlpha" type="matrix" values="0 0 0 0 0 0 0 0 0 0 0 0 0 0 0 0 0 0 127 0" result="hardAlpha"/>
<feOffset dx="1" dy="1"/>
<feGaussianBlur stdDeviation="1.5"/>
<feColorMatrix type="matrix" values="0 0 0 0 0.0666667 0 0 0 0 0.0627451 0 0 0 0 0.0666667 0 0 0 0.9 0"/>
<feBlend mode="normal" in2="BackgroundImageFix" result="effect1_dropShadow_83_448"/>
<feColorMatrix in="SourceAlpha" type="matrix" values="0 0 0 0 0 0 0 0 0 0 0 0 0 0 0 0 0 0 127 0" result="hardAlpha"/>
<feOffset dx="-1" dy="-1"/>
<feGaussianBlur stdDeviation="1"/>
<feColorMatrix type="matrix" values="0 0 0 0 0.270588 0 0 0 0 0.258824 0 0 0 0 0.270588 0 0 0 0.9 0"/>
<feBlend mode="normal" in2="effect1_dropShadow_83_448" result="effect2_dropShadow_83_448"/>
<feColorMatrix in="SourceAlpha" type="matrix" values="0 0 0 0 0 0 0 0 0 0 0 0 0 0 0 0 0 0 127 0" result="hardAlpha"/>
<feOffset dx="1" dy="-1"/>
<feGaussianBlur stdDeviation="1"/>
<feColorMatrix type="matrix" values="0 0 0 0 0.0666667 0 0 0 0 0.0627451 0 0 0 0 0.0666667 0 0 0 0.2 0"/>
<feBlend mode="normal" in2="effect2_dropShadow_83_448" result="effect3_dropShadow_83_448"/>
<feColorMatrix in="SourceAlpha" type="matrix" values="0 0 0 0 0 0 0 0 0 0 0 0 0 0 0 0 0 0 127 0" result="hardAlpha"/>
<feOffset dx="-1" dy="1"/>
<feGaussianBlur stdDeviation="1"/>
<feColorMatrix type="matrix" values="0 0 0 0 0.0666667 0 0 0 0 0.0627451 0 0 0 0 0.0666667 0 0 0 0.2 0"/>
<feBlend mode="normal" in2="effect3_dropShadow_83_448" result="effect4_dropShadow_83_448"/>
<feBlend mode="normal" in="SourceGraphic" in2="effect4_dropShadow_83_448" result="shape"/>
<feColorMatrix in="SourceAlpha" type="matrix" values="0 0 0 0 0 0 0 0 0 0 0 0 0 0 0 0 0 0 127 0" result="hardAlpha"/>
<feOffset dx="-1" dy="-1"/>
<feGaussianBlur stdDeviation="1"/>
<feComposite in2="hardAlpha" operator="arithmetic" k2="-1" k3="1"/>
<feColorMatrix type="matrix" values="0 0 0 0 0.0666667 0 0 0 0 0.0627451 0 0 0 0 0.0666667 0 0 0 0.5 0"/>
<feBlend mode="normal" in2="shape" result="effect5_innerShadow_83_448"/>
<feColorMatrix in="SourceAlpha" type="matrix" values="0 0 0 0 0 0 0 0 0 0 0 0 0 0 0 0 0 0 127 0" result="hardAlpha"/>
<feOffset dx="1" dy="1"/>
<feGaussianBlur stdDeviation="1"/>
<feComposite in2="hardAlpha" operator="arithmetic" k2="-1" k3="1"/>
<feColorMatrix type="matrix" values="0 0 0 0 0.270588 0 0 0 0 0.258824 0 0 0 0 0.270588 0 0 0 0.3 0"/>
<feBlend mode="normal" in2="effect5_innerShadow_83_448" result="effect6_innerShadow_83_448"/>
</filter>
<linearGradient id="paint0_linear_83_448" x1="65" y1="3" x2="103.522" y2="92.4009" gradientUnits="userSpaceOnUse">
<stop stop-color="#3C3B3D"/>
<stop offset="1" stop-color="#424143"/>
</linearGradient>
<clipPath id="clip0_83_448">
<rect width="48" height="48" fill="white" transform="translate(0 1)"/>
</clipPath>
</defs>
</svg>
