<svg width="424" height="372" viewBox="0 0 424 372" fill="none" xmlns="http://www.w3.org/2000/svg">
<g filter="url(#filter0_d_1_80)">
<path d="M184.905 244.611C179.314 248.883 174.036 254.416 169.072 261.21C168.707 261.711 168.422 262.265 168.227 262.853C166.968 266.66 166.691 269.891 167.386 272.69C162.114 276.505 155.746 279.324 148.339 280.721C143.233 281.68 137.876 281.408 132.635 281.408C119.756 281.474 106.877 281.408 93.9977 281.359C93.4796 281.359 92.9588 281.282 92.4379 281.242L92.1517 280.81C105.437 268.924 112.796 254.35 112.796 236.371C112.796 218.391 105.529 203.904 92 191.737C92.6803 191.622 93.3662 191.543 94.0549 191.5C110.595 191.5 127.14 191.259 143.674 191.534C162.077 191.84 179.006 205.647 184.049 224.181C185.855 230.842 186.147 237.822 184.905 244.611Z" fill="#FFA71A"/>
<path d="M228.743 251.894C229.033 253.067 229.2 254.267 229.241 255.475C227.593 260.418 225.234 263.457 222.249 264.519L221.325 264.848C221.362 263.926 221.68 262.39 222.847 259.983C224.977 256.145 226.92 253.463 228.611 251.591C228.654 251.694 228.697 251.791 228.743 251.894Z" fill="#FFA71A"/>
<path d="M274.318 268.182C273.468 267.968 272.675 267.57 271.997 267.015L270.877 266.102C270.032 265.412 269.393 264.503 269.029 263.474C268.359 261.588 267.901 258.683 268.436 251.88C266.375 253.557 263.35 255.652 258.837 258.423C257.022 271.843 256.404 275.043 256.044 276.345C255.734 277.463 255.105 278.466 254.232 279.23C261.802 277.369 268.759 273.574 274.421 268.217L274.318 268.182ZM246.43 275.309C246.502 275.382 246.569 275.461 246.63 275.544C246.571 275.459 246.504 275.381 246.43 275.309ZM244.57 190.492C229.899 190.226 215.217 190.404 200.54 190.404H195.334L194.93 190.939C208.193 202.811 215.571 217.364 215.62 235.243C219.887 231.583 223.765 229.156 227.374 227.876L227.618 227.79C228.551 227.46 229.533 227.293 230.523 227.295C232.867 227.295 235.174 228.154 237.646 229.954C238.728 226.806 240.551 224.757 243.084 223.855C243.546 223.691 244.027 223.586 244.515 223.54L247.42 223.254C255.088 219.402 262.128 216.331 268.353 214.124C268.712 213.992 269.083 213.896 269.461 213.838C272.412 212.444 275.886 210.69 279.836 208.641C275.78 203.074 270.479 198.533 264.355 195.38C258.232 192.227 251.457 190.549 244.57 190.481V190.492Z" fill="#FFA71A"/>
<path d="M194.682 171.221C206.585 160.374 213.065 147.509 213.019 131.668C212.973 115.826 206.393 103.076 194.45 92.2859C195.566 92.1485 196.116 92.0254 196.662 92.0254C210.243 92.0254 223.823 91.9682 237.403 92.0254C246.862 92.0577 256.003 95.4452 263.198 101.585C270.393 107.725 275.176 116.218 276.696 125.554C279.759 144.73 268.396 163.619 250.008 169.555C246.415 170.705 242.672 171.318 238.9 171.373C224.828 171.57 210.755 171.433 196.682 171.413C196.219 171.416 195.758 171.33 194.682 171.221Z" fill="#FFA71A"/>
<path d="M92.7476 93.1438H98.5919C110.587 93.1438 122.57 93.0551 134.568 93.0894C140.215 93.0722 145.801 94.2575 150.955 96.5665C156.108 98.8754 160.711 102.255 164.457 106.481C168.204 110.707 171.007 115.681 172.682 121.075C174.357 126.468 174.864 132.156 174.17 137.76C171.943 156.89 155.083 172.202 135.801 172.391C121.892 172.52 107.985 172.391 94.0756 172.391C93.569 172.391 93.0625 172.273 92.1037 172.165C103.881 161.352 110.149 148.395 110.223 132.769C110.298 117.142 104.213 104.108 92.4786 93.6733L92.7476 93.1438Z" fill="#FFA71A"/>
<path d="M219.383 280.5C220.509 280.759 221.661 280.89 222.817 280.889C224.008 280.885 225.194 280.756 226.358 280.505L219.383 280.5Z" fill="white"/>
<path d="M175.571 296.682L175.111 296.844L175.188 297.059L175.648 296.897L175.571 296.682ZM175.571 296.682L175.111 296.844L175.188 297.059L175.648 296.897L175.571 296.682ZM175.571 296.682L175.111 296.844L175.188 297.059L175.648 296.897L175.571 296.682Z" fill="#1D1D1B"/>
<path d="M301.77 214.968C301.715 214.831 301.617 214.717 301.49 214.643C301.362 214.57 301.214 214.541 301.069 214.562C300.913 214.563 300.757 214.581 300.605 214.616C300.562 214.496 300.519 214.384 300.47 214.281C300.422 214.178 300.373 214.078 300.322 213.995C300.273 213.909 300.218 213.827 300.159 213.749C300.104 213.677 300.045 213.609 299.981 213.546C299.869 213.431 299.736 213.341 299.588 213.279C299.441 213.218 299.282 213.187 299.122 213.188C298.934 213.19 298.747 213.225 298.57 213.291L298.481 213.048L298.644 212.744L298.559 212.501L297.339 212.687L297.176 212.226L297.316 211.94L297.013 211.771L297.451 211.617L297.288 211.156L296.386 211.473L296.309 211.256L298.813 210.369L298.727 210.128C298.676 209.995 298.581 209.884 298.457 209.812C298.334 209.74 298.19 209.713 298.049 209.733C297.81 209.741 297.574 209.78 297.345 209.851L297.508 209.547C297.317 209.346 297.088 209.185 296.834 209.073C296.58 208.961 296.306 208.9 296.029 208.895H295.84C295.708 208.907 295.578 208.931 295.45 208.966C295.385 208.983 295.316 209.006 295.25 209.029L290.903 210.569L286.478 211.894C285.289 212.528 284.138 213.135 283.023 213.717C278.175 216.253 274.017 218.321 270.548 219.922C270.436 219.874 270.365 219.819 270.342 219.748C264.045 221.982 256.965 225.096 249.1 229.089L245.093 229.476C244.011 229.857 243.248 231.343 242.803 233.932C243.843 236.861 243.983 242.332 243.224 250.346C241.698 246.837 238.557 243.624 233.802 240.706L233.725 240.486C235.877 239.15 236.831 238.138 236.587 237.449L236.201 236.356L235.869 236.199L235.668 236.018C235.537 235.898 235.408 235.784 235.276 235.672C234.509 234.992 233.668 234.399 232.769 233.906L232.526 233.783L232.345 233.7C232.225 233.646 232.111 233.597 231.993 233.554L231.822 233.491C231.41 233.344 230.977 233.266 230.539 233.259C230.229 233.256 229.921 233.308 229.629 233.411L229.386 233.497C225.379 234.916 220.639 238.358 215.165 243.82L215.05 243.955C208.496 251.491 205.342 258.291 205.588 264.352C205.217 264.098 204.797 263.923 204.355 263.84C204.266 263.758 204.17 263.685 204.068 263.62C203.997 263.571 203.922 263.527 203.845 263.488C203.765 263.445 203.682 263.408 203.593 263.371C203.01 263.142 202.395 263.004 201.77 262.959C201.57 262.941 201.358 262.927 201.138 262.916C200.917 262.904 200.683 262.916 200.442 262.916C200.127 262.916 199.795 262.924 199.446 262.941L198.728 262.984C197.617 263.066 196.356 263.224 194.944 263.457L193.983 263.623C192.998 263.8 191.949 264.011 190.834 264.255C190.462 264.335 190.082 264.421 189.69 264.51C188.138 264.865 186.469 265.278 184.681 265.749L184.463 265.826L184.309 265.389C191.714 258.169 198.367 253.513 204.269 251.422L205.628 250.938C207.038 250.438 207.437 248.939 206.825 246.442L205.64 243.797L205.539 242.821L205.322 242.899L205.036 242.758C203.937 242.287 203.058 242.051 202.4 242.049C202.18 242.045 201.961 242.079 201.753 242.149L201.292 242.312C194.25 244.811 187.602 249.311 181.35 255.809C178.67 258.613 176.184 261.596 173.908 264.736C173.58 265.704 173.329 266.696 173.158 267.704C172.893 269.324 172.957 270.688 173.35 271.797C174.018 273.676 175.276 274.833 177.125 275.268C177.168 275.389 177.237 275.499 177.326 275.592C177.376 275.644 177.432 275.692 177.492 275.735C177.757 275.91 178.056 276.029 178.37 276.084C178.508 276.115 178.656 276.138 178.82 276.158C179.182 276.201 179.547 276.221 179.913 276.218C182.328 276.218 186.284 275.528 191.779 274.146C192.237 274.032 192.705 273.912 193.184 273.786C194.621 273.414 196.155 272.997 197.786 272.535C196.88 273.936 192.873 277.471 185.766 283.142C174.804 290.932 169.462 295.207 169.738 295.967L169.816 296.19C169.945 296.139 170.083 296.111 170.222 296.107C170.319 296.1 170.415 296.126 170.495 296.181C170.574 296.236 170.633 296.317 170.66 296.41L171.095 296.256L171.172 296.473L171.032 296.759L171.109 296.977L171.57 296.814L171.713 296.528C171.749 296.665 171.832 296.786 171.946 296.87C172.061 296.955 172.201 296.997 172.343 296.991C172.517 296.986 172.689 296.951 172.852 296.888L173.093 297.569L172.952 297.856L174.475 297.835L174.552 298.053L174.091 298.216L174.255 298.677L174.933 298.437L175.09 298.877C174.386 299.249 174.094 299.613 174.214 299.951L174.3 300.191L176.616 298.854L176.779 299.312L175.431 300.532L175.517 300.775L175.803 300.915C185.66 294.376 193.314 288.945 198.765 284.621C200.324 283.329 201.799 281.939 203.181 280.46C204.909 278.614 206.482 276.629 207.884 274.524C208.17 274.418 208.333 273.98 208.324 273.199L208.473 273.434L208.616 273.637C208.662 273.7 208.708 273.757 208.751 273.809L208.879 273.949C208.988 274.085 209.145 274.174 209.317 274.198H209.352C209.87 274.756 210.391 275.277 210.917 275.766C211.115 275.947 211.312 276.124 211.513 276.299C211.713 276.473 211.913 276.639 212.114 276.805C212.934 277.476 213.804 278.083 214.718 278.62C215.036 278.809 215.356 278.983 215.677 279.144C216.851 279.747 218.095 280.202 219.38 280.5H226.364C226.575 280.457 226.79 280.409 227.005 280.354C227.219 280.3 227.523 280.22 227.783 280.142L228.175 280.025C228.436 279.942 228.699 279.856 228.962 279.762L231.538 278.849C233.385 278.192 235.585 276.992 238.138 275.248C239.301 274.353 240.374 273.345 241.341 272.24C241.413 273.832 241.596 275.047 241.89 275.887C242.016 276.236 242.217 276.41 242.5 276.41C242.61 276.408 242.718 276.387 242.82 276.347L244.148 277.163L244.435 276.536L244.678 276.45L244.984 276.616C245.339 276.49 245.425 276.024 245.25 275.208L245.173 274.991C245.308 274.941 245.45 274.915 245.594 274.913C245.767 274.914 245.937 274.957 246.089 275.039C246.12 275.056 246.149 275.076 246.178 275.097C246.213 275.118 246.248 275.142 246.281 275.168L246.349 275.228L246.415 275.294C246.489 275.366 246.556 275.444 246.615 275.529C246.661 275.589 246.703 275.652 246.741 275.718C247.051 275.609 247.122 275.328 246.962 274.876L247.423 274.71L247.752 275.635L247.583 275.938L248.441 276.15L248.659 276.073C248.499 275.617 249.037 275.174 250.265 274.739C250.715 273.119 251.718 266.465 253.273 254.776C261.527 249.88 266.316 246.367 267.64 244.238C267.579 244.066 267.321 243.98 266.867 243.98C266.58 243.985 266.293 244.008 266.009 244.049L265.926 243.809L266.089 243.5L266.006 243.259L264.455 243.291L263.155 244.021L262.938 244.098L262.852 243.857L263.533 243.617L263.456 243.4L262.752 242.879L262.368 241.719C262.3 241.743 262.228 241.753 262.156 241.751H262.082L261.91 241.725C261.837 241.709 261.764 241.689 261.693 241.665L261.507 241.596C261.34 241.528 261.176 241.45 261.017 241.365C260.886 241.296 260.745 241.216 260.597 241.124C260.499 241.067 260.393 241.001 260.287 240.932L254.469 243.485L254.249 243.563C254.143 241.015 254.188 239.702 254.386 239.63C253.955 237.033 254.518 235.458 256.075 234.905C258.496 233.772 260.72 232.722 262.746 231.757C262.949 231.907 263.16 232.045 263.378 232.172C263.524 232.255 263.665 232.332 263.816 232.401C263.911 232.446 264.005 232.487 264.103 232.527C264.838 232.829 265.626 232.983 266.421 232.979C266.644 232.979 266.87 232.967 267.099 232.944C267.271 232.927 267.445 232.904 267.62 232.876C267.795 232.847 267.975 232.813 268.152 232.77C268.525 232.683 268.893 232.575 269.254 232.446L277.268 228.07L276.982 233.073C274.349 248.939 273.579 258.409 274.672 261.485L275.788 262.398C277.444 262.814 278.424 263.195 278.728 263.543C278.758 263.577 278.784 263.615 278.805 263.657L279.022 263.58L279.18 263.253C279.253 263.489 279.394 263.699 279.583 263.857C279.693 263.941 279.82 264 279.955 264.029C280.043 264.049 280.132 264.059 280.222 264.058C280.469 264.051 280.714 264.002 280.946 263.915L282.196 264.51C282.794 264.298 283.391 263.566 283.988 262.315C284.001 260.479 284.192 257.672 284.56 253.892C285.156 247.704 286.218 238.906 287.749 227.498L287.792 227.166C287.444 224.029 287.845 222.255 288.994 221.843L301.953 215.443L301.77 214.968ZM175.188 297.06L175.11 296.842L175.574 296.679L175.651 296.897L175.188 297.06ZM235.179 256.505C232.923 263.814 229.278 268.365 224.243 270.157L222.371 270.821C221.663 270.989 220.938 271.078 220.21 271.087C219.886 271.089 219.563 271.065 219.243 271.015C219.134 270.998 219.025 270.975 218.92 270.949C218.573 270.876 218.237 270.757 217.921 270.597C217.82 270.546 217.726 270.492 217.634 270.434C217.261 270.199 216.931 269.9 216.659 269.553C216.59 269.464 216.521 269.37 216.458 269.267C216.222 268.909 216.03 268.525 215.886 268.122L215.808 267.904C214.824 265.134 215.405 261.583 217.551 257.252C221.671 249.782 225.912 244.925 230.276 242.681H230.313C230.34 242.683 230.366 242.692 230.388 242.707C230.41 242.721 230.431 242.737 230.451 242.756C230.508 242.807 230.562 242.862 230.611 242.922C230.642 242.956 230.674 242.996 230.708 243.039C230.88 243.254 231.097 243.571 231.361 243.983L231.527 244.244C231.782 244.65 232.073 245.14 232.403 245.706L232.42 246.442C232.887 246.785 233.561 247.967 234.44 249.988C235.059 252.573 235.305 254.746 235.179 256.505Z" fill="white"/>
</g>
<defs>
<filter id="filter0_d_1_80" x="-3.05176e-05" y="0" width="423.953" height="422.915" filterUnits="userSpaceOnUse" color-interpolation-filters="sRGB">
<feFlood flood-opacity="0" result="BackgroundImageFix"/>
<feColorMatrix in="SourceAlpha" type="matrix" values="0 0 0 0 0 0 0 0 0 0 0 0 0 0 0 0 0 0 127 0" result="hardAlpha"/>
<feMorphology radius="7" operator="dilate" in="SourceAlpha" result="effect1_dropShadow_1_80"/>
<feOffset dx="15" dy="15"/>
<feGaussianBlur stdDeviation="50"/>
<feComposite in2="hardAlpha" operator="out"/>
<feColorMatrix type="matrix" values="0 0 0 0 0 0 0 0 0 0 0 0 0 0 0 0 0 0 1 0"/>
<feBlend mode="normal" in2="BackgroundImageFix" result="effect1_dropShadow_1_80"/>
<feBlend mode="normal" in="SourceGraphic" in2="effect1_dropShadow_1_80" result="shape"/>
</filter>
</defs>
</svg>
