<svg width="43" height="36" viewBox="0 0 43 36" fill="none" xmlns="http://www.w3.org/2000/svg">
<path fill-rule="evenodd" clip-rule="evenodd" d="M3.29865 15.6746C12.7238 11.6047 24.1235 5.8114 34.0027 1.89688C43.1231 -1.55618 42.9708 -0.614431 41.6026 8.78574C40.536 16.3024 39.3171 23.8175 38.1074 31.3342C37.6503 34.9348 35.8219 36.8136 32.0266 34.6303L20.1713 26.0181C18.4953 24.6055 18.9524 23.5068 20.3236 22.1036L31.2663 11.4556C34.1612 8.47339 32.7899 7.38411 29.4379 9.72905L14.3906 20.2201C12.2576 21.7896 9.98279 21.7896 7.55108 21.0049L2.38295 19.1214C-0.969019 17.8657 1.62114 16.4531 3.29713 15.6762L3.29865 15.6746Z" fill="white"/>
</svg>
