<svg width="44" height="35" viewBox="0 0 44 35" fill="none" xmlns="http://www.w3.org/2000/svg">
<path fill-rule="evenodd" clip-rule="evenodd" d="M21.4962 10.5262C19.7843 1.74654 30.6259 -3.47613 37.0146 2.85246C37.0146 2.85246 39.8683 2.07455 42.379 0.518734C41.6439 2.53597 40.2383 4.25646 38.3851 5.40737C38.3851 5.40737 41.8073 4.96349 43.2921 4.07424C43.2921 4.07424 41.8073 7.07453 39.0695 8.18647C40.5527 28.3007 18.301 40.5246 0.271912 30.5231C0.271912 30.5231 9.17291 30.9745 12.9413 26.7449C12.9413 26.7449 7.4641 27.1888 4.72474 20.7443C4.72474 20.7443 6.77964 21.5222 8.833 20.5216C8.833 20.5216 2.4427 19.5211 1.88031 12.076C1.88031 12.076 3.93368 13.6318 6.21571 13.0751C6.21571 13.0751 -0.859056 8.96438 3.13488 1.51783C3.13488 1.51783 10.667 10.8467 21.507 10.5202L21.4962 10.5262Z" fill="white"/>
</svg>
