<svg width="44" height="31" viewBox="0 0 44 31" fill="none" xmlns="http://www.w3.org/2000/svg">
<path fill-rule="evenodd" clip-rule="evenodd" d="M21.6322 0.0932617C17.8619 0.0932617 12.9183 0.259293 8.72946 0.594452C3.78591 1.01187 1.18888 1.84824 0.518222 6.77643C0.22961 9.60835 0.0898984 12.4534 0.0996514 15.2999C0.0876383 18.1459 0.227356 20.9906 0.518222 23.8218C1.18888 28.8354 3.78591 29.5864 8.72946 30.0054C12.9183 30.4228 17.8619 30.5065 21.6322 30.5065C25.4025 30.5065 30.262 30.4228 34.5349 30.0054C39.4784 29.5864 41.993 28.8354 42.6621 23.8218C42.9982 21.6495 43.1647 18.4747 43.1647 15.2999C43.1647 12.1251 42.9982 9.03259 42.6621 6.77643C41.993 1.84824 39.4784 1.01187 34.5349 0.594452C30.262 0.259293 25.4025 0.0932617 21.6322 0.0932617ZM28.5023 15.2998L17.2755 8.86646V21.8169L28.5023 15.2998Z" fill="white"/>
</svg>
